<?xml version="1.0" encoding="UTF-8"?>
<svg xmlns="http://www.w3.org/2000/svg" viewBox="0 0 7941.88 2448.41">
  <defs>
    <style>
      .cls-1 {
        stroke: #fc0;
      }

      .cls-1, .cls-2, .cls-3, .cls-4, .cls-5, .cls-6, .cls-7, .cls-8, .cls-9, .cls-10, .cls-11, .cls-12 {
        stroke-miterlimit: 10;
      }

      .cls-1, .cls-2, .cls-3, .cls-5, .cls-6, .cls-7, .cls-8, .cls-9, .cls-11, .cls-12 {
        stroke-width: 3px;
      }

      .cls-1, .cls-13 {
        fill: #fc0;
      }

      .cls-14, .cls-8, .cls-11 {
        fill: #fff;
      }

      .cls-15 {
        fill: #221f20;
      }

      .cls-2, .cls-3, .cls-11 {
        stroke: #000;
      }

      .cls-2, .cls-5, .cls-12 {
        fill: #00244b;
      }

      .cls-3, .cls-4, .cls-6 {
        fill: #e11136;
      }

      .cls-4, .cls-10 {
        stroke: #fff;
        stroke-width: 9px;
      }

      .cls-5, .cls-6, .cls-7, .cls-8, .cls-9 {
        stroke: #221f20;
      }

      .cls-9 {
        fill: #c1c2c4;
      }

      .cls-10 {
        fill: none;
      }

      .cls-12 {
        stroke: #00244b;
      }
    </style>
  </defs>
  <g id="Layer_6" data-name="Layer 6">
    <path class="cls-8" d="M7152.47,1479.01s-63.6-52.89-63.6-56.56-11.33-62.93-11.33-62.93l-8.55-3.67-7.74-16.3-3.26-4.89,9.78-6.92,1.22-9.37h5.3l2.45-5.7,4.48-3.26,7.33,4.48,2.03,11-2.04,4.07-2.13-.91-1.36,4.92-3.05-.26-1.4,4.83-3.83-.98-1.19,4.79-4.67-.38,3.27,2.98,15.1-13.85,2.69-8.79-.4-4.59,6.51,6.55-.98,8.79s-1.22,10.25-3.91,11.47-2.2,4.88-2.2,4.88c0,0,25.1,62.62,24.61,64.57s53.72,39.44,53.72,39.44l3.9,17.59-20.77,8.98Z"/>
    <path class="cls-8" d="M822.17,1481.34s63.6-52.89,63.6-56.56,11.33-62.93,11.33-62.93l8.55-3.67,7.74-16.3,3.26-4.89-9.78-6.92-1.22-9.37h-5.3s-2.45-5.7-2.45-5.7l-4.48-3.26-7.33,4.48-2.03,11,2.04,4.07,2.13-.91,1.36,4.92,3.05-.26,1.4,4.83,3.83-.98,1.19,4.79,4.67-.38-3.27,2.98-15.1-13.85-2.69-8.79,.4-4.59-6.51,6.55,.98,8.79s1.22,10.25,3.91,11.47,2.2,4.88,2.2,4.88c0,0-25.1,62.62-24.61,64.57s-53.72,39.44-53.72,39.44l-3.9,17.59,20.77,8.98Z"/>
    <polygon class="cls-5" points="811.91 1487.38 844.67 1471.41 829.66 1438.34 802.95 1440.02 781.52 1480.68 811.91 1487.38"/>
    <polygon points="816.38 1493.61 849.14 1477.63 834.13 1444.56 807.42 1446.25 785.99 1486.91 816.38 1493.61"/>
    <path class="cls-8" d="M848.05,1391.07c1.24,3.57,4.1,13.65,1.03,23.23-.2,.64-.14,1.32,.21,1.89,1.09,1.8,2.45,4.85,4.64,5.98,.53,.27,2.64,1.14,2.86,1.69,.46,1.18,.48,3.42-.91,3.52-1.5,.11-5.29,1.65-7.2,2.46-.71,.3-1.21,.94-1.34,1.69l-2.5,14.74s-.44,2.8-5.31,2.36c-3.84-.35-14.2-2.07-18.55-4.31-1.2-.62-2.66-.06-3.14,1.2l-8.42,22.09c-.36,.93-1.28,1.52-2.27,1.45-5.77-.42-24.6-2.59-28.91-13.35-.28-.69-.2-1.46,.2-2.08l18.81-29.11c.62-.96,.43-2.23-.45-2.96-2.09-1.72-5.63-5.91-5.63-7.15,0-1.77-1.27-10.26,2.56-9.53,0,0,3.75,1.29,5.83,3,.84,.68,1.18-.3,1.85-1.15l15.14-19.27c.48-.61,1.24-.93,2.01-.85l27.62,2.93c.87,.09,1.6,.67,1.89,1.49Z"/>
    <polygon class="cls-7" points="675.48 1756.39 645.25 1757.73 645.25 1779.59 685.07 1780.95 676.24 1758.31 675.48 1756.39"/>
    <polygon class="cls-7" points="769.75 1875.47 760.53 1898.28 752.88 1903.84 732.67 1908.54 744.54 1865.61 769.75 1875.47"/>
    <polygon class="cls-5" points="641.63 1790.09 652.46 1793.01 652.46 1778.38 642.55 1776.66 644.59 1764.62 646.85 1764.62 643.31 1744.75 639.99 1744.75 637.14 1746.7 622.56 1744.75 616.13 1747.48 613.2 1760.13 616.96 1764.7 617.06 1773.74 608.92 1778.66 605.37 1819.27 612.24 1823.93 620.03 1819.67 628.92 1793.77 641.63 1790.09"/>
    <polygon class="cls-5" points="764.62 1902.64 766.69 1890.93 751.24 1892.31 750.35 1902.93 737.45 1901.91 737.24 1899.53 716.58 1905.13 716.9 1908.64 719.22 1911.46 718.53 1927.04 722.02 1933.57 735.66 1935.48 740.13 1931.08 749.67 1930.13 755.63 1938.26 798.84 1938.19 803.12 1930.49 797.89 1922.67 769.71 1915.72 764.62 1902.64"/>
    <path class="cls-5" d="M803.12,1721.91l-66.8-56.96,3.24,77.95-5.98-.37v6.68s-81.13-3.52-81.13-3.52c0,0,17.3,39.89,4.89,50.98l95.76-4.02,13.65-10.2,29.91-51.64,6.46-8.9Z"/>
    <path d="M793.73,1713.9l-57.41-48.96,3.24,77.95-5.98-.37v6.68s-81.13-3.52-81.13-3.52c0,0,14.07,24.87,9.58,42.58l89.59-2.56,11.26-9.78,28.2-52.74,2.65-9.28Z"/>
    <path class="cls-5" d="M795.57,1597.96l45.74,153.01s5,14.65-4.18,23.83l-57.2,111.41s-62.78-4.93-61.27-12.11-2.53,0-2.53,0l76.35-110.99-5.84-4.04,5.84-4.05-46.74-60.19s-18.88-27.4-18.88-30.55-8.54-22.01-5.4-48.52c3.14-26.51,21.56-23.37,21.56-23.37l52.56,5.57Z"/>
    <path class="cls-2" d="M778.06,1454.77s-.97,13.08,31.06,14.31c0,0,26.78,30.52,27.93,39.45s-10.75,34.1-10.75,34.1l-21.26,46.7,.93,10.22-2.55,.93,2.09,4.18-3.25,1.63,.93,4.41,.7,3.25h-85.22s4.17-17.39,9.75-24.13l-2.32-4.18s11.83-41.34,11.83-45.05,2.31-41.8,2.31-41.8c0,0,24.44-37.85,32.94-44.01h4.89Z"/>
    <path class="cls-13" d="M762.12,1470.12l11.26-14.27,3.29,.28s3.27,14.27,31.43,14.01l-3.45,20.61-42.53-20.64Z"/>
    <polygon class="cls-9" points="1088.72 1626.48 901.9 1347.46 908.38 1341.44 915.85 1341.44 1100.07 1617.91 1088.72 1626.48"/>
    <polygon class="cls-9" points="880.85 1319.45 810.78 1214.79 826.93 1218.44 826.93 1218.44 892.2 1310.88 880.85 1319.45"/>
    <path class="cls-5" d="M570.49,818.43l256.44,400.01s-79.05,9.18-152.72,70.51c-15.56,12.96-167.53,159.44-272.8,148.39-92.43-9.7-172.24,145.32-172.24,145.32L34.57,1218.44s98.75-113.09,174.03-132.44c100.88-25.93,166.03-120.49,166.03-120.49,0,0,38.93-68.9,195.86-147.08Z"/>
    <path class="cls-11" d="M968,1465.34s-72.09,27.01-78.04,32.06l-58.45-13.83-24.57,7.36v16.8s23.18,10.14,23.18,10.14c0,0,61.95,10.63,65.1,6.53s68.94-38.76,68.94-38.76l22.75,3.49,12.25-14,7.7,2.1,4.55-6.83-8.4-5.06,4.2-10.57-4.55-4.49,.35-3.5-5.25-1.75v-7.7h-18.55s-11.19,28.01-11.19,28.01Z"/>
    <polygon class="cls-13" points="775.57 1510.76 744.19 1612.53 773.8 1612.53 803.85 1519.56 775.57 1510.76"/>
    <path class="cls-2" d="M772.59,1507.59s0-25.67,12.41-34.5c12.42-8.83,56.32,6.99,56.32,6.99l-21.61,44.33-22.48-8.97"/>
    <path class="cls-7" d="M800.83,1407.56l17.63-19.04,28.65,3.93,4.5,8.6s17.37-10.16,10.51-24.3c0,0-51.23-33.47-63.84-8.37,0,0-19.82-1.13-20.39,7.51,0,0-18.55,15.74-2.01,55.9,0,0,4.38,8.2,2.17,11.5h7.07s6.78-3.21,6.78-3.21l8.12-13.14-4.54-4.57-6.88-6.83,3.33-12.56,5.76,2.34,3.14,2.26Z"/>
    <polygon points="642.12 1784.34 652.46 1786.98 652.46 1777.26 642.55 1775.53 644.59 1763.5 646.85 1763.5 643.31 1743.62 639.99 1743.62 637.14 1745.57 622.56 1743.62 616.13 1746.35 613.2 1759 616.96 1763.57 617.06 1772.61 608.92 1777.54 605.86 1812.52 613.16 1816.02 618.5 1811.8 624.59 1790.3 642.12 1784.34"/>
    <polygon class="cls-13" points="774.6 1615.44 827.55 1745.94 805.34 1749.03 744.93 1615.44 774.6 1615.44"/>
    <polygon class="cls-13" points="827.55 1745.94 823.78 1758.48 799.3 1759.97 805.34 1749.03 827.55 1745.94"/>
    <polygon class="cls-13" points="799.3 1759.97 805.51 1767.5 827.55 1766.24 823.78 1758.48 799.3 1759.97"/>
    <polygon class="cls-13" points="827.55 1766.24 759.85 1882.94 735.75 1878.67 805.51 1767.5 827.55 1766.24"/>
  </g>
  <g id="Layer_16" data-name="Layer 16">
    <path class="cls-1" d="M324.83,1401.4s-29.3-62.78,38.13-71.37c0,0,34.88-1.04,17.27-31.26l-93.98-143.44-6.56,20.55,61.11,91.23s28.26,26.64-14.81,68.91c-.76,.74-1.73,1.28-2.79,1.41-1.87,.22-4.31-.67-4.06-7.02,.39-10.16,1.71-19.68-3.22-25.47l-17.11-24.07s-12.72,4.69-6.95,20.03c0,0-1.12,10.82-11.06,4.27s-34.22-22.32-21.77-41.23c0,0,2.79-10.16,19.59-19.16l-16.11-25.62s-10.9-16.88,3.15-38.02l30.83-80.52,58.93,2.31,8.3-6.69-14.39-20.22,7.77-4.62,9.25,13.48,15.16-41.29s32.56,3.24,61.55-6.47v25.85l90.31,137.58s18.06,8.66,28.46-7.84v57.9s-27.21,20.57-61.19-12.14l-41.61-64.28-23.85,16.96,40.07,61.17,8.79,.04-3.83,51.68s-19.08-11.45-65.19,13.17l4.26-29.45-41.1-61.17-22.81,16.45,46.23,72.05s21.64,45.75-22.14,55.05c0,0-23.57-1.47-32.92,7.28s-7.03,1.63-21.71,24Z"/>
  </g>
  <g id="Layer_17" data-name="Layer 17">
    <polygon class="cls-12" points="297.62 1155.18 335.63 1214.79 356.88 1200.92 327.25 1157.9 297.62 1155.18"/>
    <polygon class="cls-12" points="367.29 1109.7 458.74 1247.07 453.04 1250.67 367.29 1120.03 367.29 1109.7"/>
    <polygon class="cls-12" points="379.33 1101.36 416.21 1158.37 438.08 1145.03 408.71 1098.37 379.33 1101.36"/>
  </g>
  <g id="Layer_7" data-name="Layer 7">
    <polygon class="cls-6" points="7162.73 1485.06 7129.97 1469.08 7144.98 1436.01 7171.69 1437.69 7193.13 1478.35 7162.73 1485.06"/>
    <polygon points="7158.26 1492.6 7125.5 1476.62 7140.51 1443.55 7167.22 1445.24 7188.65 1485.9 7158.26 1492.6"/>
  </g>
  <g id="Layer_2" data-name="Layer 2">
    <path class="cls-8" d="M7126.59,1388.74c-1.24,3.57-4.1,13.65-1.03,23.23,.2,.64,.14,1.32-.21,1.89-1.09,1.8-2.45,4.85-4.64,5.98-.53,.27-2.64,1.14-2.86,1.69-.46,1.18-.48,3.42,.91,3.52,1.5,.11,5.29,1.65,7.2,2.46,.71,.3,1.21,.94,1.34,1.69l2.5,14.74s.44,2.8,5.31,2.36c3.84-.35,14.2-2.07,18.55-4.31,1.2-.62,2.66-.06,3.14,1.2l8.42,22.09c.36,.93,1.28,1.52,2.27,1.45,5.77-.42,24.6-2.59,28.91-13.35,.28-.69,.2-1.46-.2-2.08l-18.81-29.11c-.62-.96-.43-2.23,.45-2.96,2.09-1.72,5.63-5.91,5.63-7.15,0-1.77,1.27-10.26-2.56-9.53,0,0-3.75,1.29-5.83,3-.84,.68-1.18-.3-1.85-1.15l-15.14-19.27c-.48-.61-1.24-.93-2.01-.85l-27.62,2.93c-.87,.09-1.6,.67-1.89,1.49Z"/>
  </g>
  <g id="Layer_10" data-name="Layer 10">
    <polygon class="cls-7" points="7299.16 1754.06 7329.39 1755.4 7329.39 1777.26 7289.57 1778.62 7298.4 1755.98 7299.16 1754.06"/>
    <polygon class="cls-7" points="7204.89 1873.14 7214.11 1895.95 7221.76 1901.51 7241.97 1906.21 7230.1 1863.28 7204.89 1873.14"/>
  </g>
  <g id="Layer_11" data-name="Layer 11">
    <polygon class="cls-8" points="7333.01 1787.76 7322.18 1790.68 7322.18 1776.05 7332.09 1774.33 7330.05 1762.29 7327.79 1762.29 7331.33 1742.42 7334.65 1742.42 7337.5 1744.37 7352.08 1742.42 7358.51 1745.15 7361.44 1757.8 7357.68 1762.37 7357.58 1771.41 7365.72 1776.34 7369.27 1816.94 7362.4 1821.6 7354.61 1817.34 7345.72 1791.45 7333.01 1787.76"/>
    <polygon class="cls-8" points="7210.02 1900.31 7207.95 1888.6 7223.4 1889.98 7224.29 1900.6 7237.19 1899.58 7237.4 1897.2 7258.06 1902.8 7257.74 1906.31 7255.42 1909.13 7256.11 1924.71 7252.62 1931.24 7238.98 1933.15 7234.51 1928.75 7224.97 1927.8 7219.01 1935.93 7175.8 1935.86 7171.52 1928.17 7176.76 1920.34 7204.93 1913.39 7210.02 1900.31"/>
    <polygon class="cls-15" points="7333.29 1782.01 7322.18 1784.42 7322.18 1776.05 7332.09 1774.33 7330.05 1762.29 7327.79 1762.29 7331.33 1742.42 7334.65 1742.42 7337.5 1744.37 7352.08 1742.42 7358.51 1745.15 7361.44 1757.8 7357.68 1762.37 7357.58 1771.41 7365.72 1776.34 7368.89 1812.59 7362.4 1815.67 7359.33 1813.63 7348.22 1784.52 7333.29 1782.01"/>
  </g>
  <g id="Layer_9" data-name="Layer 9">
    <path class="cls-6" d="M7171.52,1719.58l66.8-56.96-3.24,77.95,5.98-.37v6.68s81.13-3.52,81.13-3.52c0,0-17.3,39.89-4.89,50.98l-95.76-4.02-13.65-10.2-29.91-51.64-6.46-8.9Z"/>
    <path d="M7180.32,1712.07l58-49.46-3.24,77.95,5.98-.37v6.68s81.13-3.52,81.13-3.52c0,0-12.7,28.6-9.25,40.39l-85.91-1.74-12.11-8.17-23.88-53.38-10.71-8.39Z"/>
  </g>
  <g id="Layer_8" data-name="Layer 8">
    <path class="cls-6" d="M7179.07,1595.63l-45.74,153.01s-5,14.65,4.18,23.83l57.2,111.41s62.78-4.93,61.27-12.11,2.53,0,2.53,0l-76.35-110.99,5.84-4.04-5.84-4.05,46.74-60.19s18.88-27.4,18.88-30.55,8.54-22.01,5.4-48.52c-3.14-26.51-21.56-23.37-21.56-23.37l-52.56,5.57Z"/>
  </g>
  <g id="Layer_3" data-name="Layer 3">
    <path class="cls-3" d="M7196.58,1452.45s.97,13.08-31.06,14.31c0,0-26.78,30.52-27.93,39.45s10.75,34.1,10.75,34.1l21.26,46.7-.93,10.22,2.55,.93-2.09,4.18,3.25,1.63-.93,4.41-.7,3.25h85.22s-4.17-17.39-9.75-24.13l2.32-4.18s-11.83-41.34-11.83-45.05-2.31-41.8-2.31-41.8c0,0-24.44-37.85-32.94-44.01h-4.89Z"/>
  </g>
  <g id="Layer_13" data-name="Layer 13">
    <polygon class="cls-9" points="6885.92 1624.15 7072.74 1345.13 7066.26 1339.11 7058.79 1339.11 6874.57 1615.59 6885.92 1624.15"/>
    <polygon class="cls-9" points="7093.79 1317.12 7163.86 1212.46 7147.71 1216.11 7147.71 1216.11 7082.44 1308.55 7093.79 1317.12"/>
  </g>
  <g id="Layer_14" data-name="Layer 14">
    <path class="cls-6" d="M7404.15,816.1l-256.44,400.01s79.05,9.18,152.72,70.51c15.56,12.96,167.53,159.44,272.8,148.39,92.43-9.7,172.24,145.32,172.24,145.32l194.6-364.22s-98.75-113.09-174.03-132.44c-100.88-25.93-166.03-120.49-166.03-120.49,0,0-38.93-68.9-195.86-147.08Z"/>
  </g>
  <g id="Layer_5" data-name="Layer 5">
    <path class="cls-11" d="M7006.64,1463.01s72.09,27.01,78.04,32.06l58.45-13.83,24.57,7.36v16.8l-23.18,10.14s-61.95,10.63-65.1,6.53c-3.15-4.1-68.94-38.76-68.94-38.76l-22.75,3.49-12.25-14-7.7,2.1-4.55-6.83,8.4-5.06-4.2-10.57,4.55-4.49-.35-3.5,5.25-1.75v-7.7h18.55s11.19,28.01,11.19,28.01Z"/>
  </g>
  <g id="Layer_4" data-name="Layer 4">
    <path class="cls-3" d="M7202.05,1505.26s0-25.67-12.41-34.5-56.32,6.99-56.32,6.99l21.61,44.33,22.48-8.97"/>
  </g>
  <g id="Layer_12" data-name="Layer 12">
    <path class="cls-7" d="M7173.81,1405.23l-17.63-19.04-28.65,3.93-4.5,8.6s-17.37-10.16-10.51-24.3c0,0,51.23-33.47,63.84-8.37,0,0,19.82-1.13,20.39,7.51,0,0,18.55,15.74,2.01,55.9,0,0-4.38,8.2-2.17,11.5h-7.07s-6.78-3.21-6.78-3.21l-8.12-13.14,4.54-4.57,6.88-6.83-3.33-12.56-5.76,2.34-3.14,2.26Z"/>
  </g>
  <g id="Layer_15" data-name="Layer 15">
    <polygon class="cls-14" points="7142.5 1493.46 7189.55 1477.84 7193.2 1476.36 7194.99 1479.68 7144.03 1497.11 7142.5 1493.46"/>
    <polygon class="cls-14" points="7146.41 1500.64 7193.45 1485.01 7196.23 1483.88 7197.66 1487.28 7147.93 1504.28 7146.41 1500.64"/>
    <polygon class="cls-14" points="7214.55 1582.56 7196.09 1513.09 7194.99 1509.68 7198.44 1508.17 7217.56 1581.77 7214.55 1582.56"/>
    <polygon class="cls-14" points="7220.37 1588.31 7216.7 1584.39 7214.55 1582.56 7217.26 1581.05 7223.63 1587.92 7220.37 1588.31"/>
    <polygon class="cls-14" points="7218 1593.84 7221.67 1589.92 7223.83 1587.83 7221.11 1586.58 7214.75 1593.45 7218 1593.84"/>
    <polygon class="cls-14" points="7229.26 1608.99 7216.97 1595.55 7214.81 1593.47 7217.53 1592.21 7232.57 1608.99 7229.26 1608.99"/>
    <polyline class="cls-14" points="7190.13 1512.02 7208.26 1581.77 7205.24 1582.56 7186.78 1513.09"/>
    <polygon class="cls-14" points="7211.06 1588.31 7207.39 1584.39 7205.24 1582.56 7207.95 1581.05 7214.32 1587.92 7211.06 1588.31"/>
    <polygon class="cls-14" points="7208.69 1593.84 7212.36 1589.92 7214.53 1587.83 7211.81 1586.58 7205.44 1593.45 7208.69 1593.84"/>
    <polygon class="cls-14" points="7219.95 1608.99 7207.67 1595.55 7205.51 1593.47 7208.23 1592.21 7223.26 1608.99 7219.95 1608.99"/>
    <polygon class="cls-14" points="7170.93 1742.93 7236.58 1612.22 7236.58 1612.22 7232.7 1612.1 7167.84 1741.24 7170.93 1742.93"/>
    <polygon class="cls-14" points="7160.78 1742.93 7226.43 1612.22 7226.43 1612.22 7222.19 1612.1 7157.69 1741.24 7160.78 1742.93"/>
    <polygon class="cls-14" points="7169.06 1752.77 7169.06 1752.77 7167.84 1741.24 7171.32 1742.15 7171.74 1751.76 7169.06 1752.77"/>
    <polygon class="cls-14" points="7158.91 1752.77 7158.91 1752.77 7157.69 1741.24 7161.17 1742.15 7161.59 1751.76 7158.91 1752.77"/>
    <polygon class="cls-14" points="7158.2 1757.58 7160.07 1754.31 7161.59 1751.76 7158.8 1751.74 7155.01 1757.74 7158.2 1757.58"/>
    <polygon class="cls-14" points="7168.35 1757.58 7170.22 1754.31 7171.74 1751.76 7168.95 1751.74 7165.16 1757.74 7168.35 1757.58"/>
    <polygon class="cls-14" points="7225.38 1877.76 7165.16 1757.86 7165.16 1757.86 7168.35 1757.58 7228.99 1877.21 7225.38 1877.76"/>
    <polygon class="cls-14" points="7215.86 1879.01 7155.01 1757.86 7155.01 1757.86 7158.2 1757.58 7219.42 1878.34 7215.86 1879.01"/>
    <path class="cls-10" d="M7477.66,1225.79l-32.44-25.74,133.34-93.98s48.79,12.15,64.76,53.45l-55.38,138.95-25.37-14.3"/>
    <line class="cls-10" x1="7623.66" y1="1111.34" x2="7602.82" y2="1139.97"/>
    <ellipse class="cls-10" cx="7595.13" cy="1149.96" rx="13.96" ry="25.81" transform="translate(2233.54 6651.03) rotate(-54.35)"/>
    <path class="cls-10" d="M7572.64,1139.97l-12.65,16.19s-105.82,32.89-39.97,91.25c0,0,65.73,45.39,75.12-63.43l13.32-17.96"/>
    <circle class="cls-10" cx="7544.27" cy="1214.92" r="16.54"/>
    <path class="cls-10" d="M7533.72,1251.17c-3.3,4.6-11.53,4.35-18.37-.56-6.85-4.91-11.04-11.81-7.74-16.41,3.3-4.6,12.85-5.17,19.7-.26,6.85,4.91,9.72,12.62,6.42,17.23Z"/>
    <ellipse class="cls-10" cx="7501.4" cy="1270.05" rx="13.96" ry="35.09" transform="translate(2096.87 6624.96) rotate(-54.35)"/>
    <path class="cls-10" d="M7527.74,1290.01l-6.42,35.18s-54.64-14.85-72.79-55.14l24.36-20.46"/>
    <line class="cls-10" x1="7636.96" y1="1095.45" x2="7660.75" y2="1062.9"/>
    <line class="cls-10" x1="7678.93" y1="1160.54" x2="7721.99" y2="1143.69"/>
    <line class="cls-10" x1="7678.93" y1="1238.77" x2="7724.57" y2="1246.2"/>
    <line class="cls-10" x1="7653.55" y1="1298.46" x2="7691.89" y2="1324.31"/>
    <g>
      <path d="M1512,1386.4v201.78h-58.23v-143.55h-46.88v427h43.58v66.65h-165.16v-66.65h43.58v-427h-46.88v143.55h-58.23v-201.78h288.21Z"/>
      <path d="M1664.71,1677.9v193.73h26v66.65h-146.12v-66.65h42.11v-418.58h-42.11v-66.65h146.12v66.65h-26v158.2h77.27v-158.2h-26v-66.65h146.12v66.65h-42.11v418.58h42.11v66.65h-146.12v-66.65h26v-193.73h-77.27Z"/>
      <path d="M1896.52,1938.28v-66.65h40.65v-418.58h-40.65v-66.65h254.15v161.13h-66.65v-94.48h-68.85v167.36h56.03v66.65h-56.03v184.57h68.85v-102.91h66.65v169.56h-254.15Z"/>
      <path d="M2562.66,1687.79v183.84h41.02v66.65h-165.53v-66.65h46.51v-418.58h-46.51v-66.65h138.06c46.63,0,83.5,13.67,110.6,41.01s40.65,63.58,40.65,108.74c0,58.34-21.9,101.66-65.69,129.98l59.84,205.5h32.96v66.65h-93.29l-67.85-252.69c-8.06,1.46-18.31,2.2-30.76,2.2Zm0-234.74v168.09c29.54,0,50.78-6.77,63.72-20.32,12.94-13.55,19.41-35.09,19.41-64.64,0-31.25-6.53-52.92-19.59-65-13.06-12.08-34.24-18.13-63.54-18.13Z"/>
      <path d="M2778.72,1938.28v-66.65h42.11v-418.58h-42.11v-66.65h162.23v66.65h-42.11v418.58h42.11v66.65h-162.23Z"/>
      <path d="M3096.11,1942.67l-92.63-489.62h-37.98v-66.65h152.71v66.65h-37.35c29.9,146.24,45.95,259.04,48.16,338.38h1.46c1.96-71.53,17.52-184.32,46.69-338.38h-37.35v-66.65h145.39v66.65h-39.83l-89.35,489.62h-59.9Z"/>
      <path d="M3398.37,1746.38l-13.5,125.24h35.08v66.65h-147.58v-66.65h34.42l60.77-418.58h-38.43v-66.65h204.35v66.65h-38.43l60.77,418.58h34.42v66.65h-147.58v-66.65h35.08l-13.49-125.24h-65.88Zm4.93-66.65h56.03l-23.63-246.09h-8.79l-23.62,246.09Z"/>
      <path d="M3621.01,1938.28v-66.65h39.92v-418.58h-39.92v-66.65h160.03v66.65h-42.11v418.58h67.38v-173.22h66.65v239.87h-251.95Z"/>
      <path d="M4020.91,1687.79v183.84h41.02v66.65h-165.53v-66.65h46.51v-418.58h-46.51v-66.65h138.06c46.63,0,83.5,13.67,110.6,41.01s40.65,63.58,40.65,108.74c0,58.34-21.9,101.66-65.7,129.98l59.84,205.5h32.96v66.65h-93.29l-67.85-252.69c-8.06,1.46-18.31,2.2-30.76,2.2Zm0-234.74v168.09c29.54,0,50.78-6.77,63.72-20.32,12.94-13.55,19.41-35.09,19.41-64.64,0-31.25-6.54-52.92-19.59-65-13.06-12.08-34.24-18.13-63.54-18.13Z"/>
      <path d="M4280.55,1938.28v-66.65h38.82v-177.25l-88.99-241.33h-35.52v-66.65h149.41v66.65h-35.83l50.77,148.25h1.47l47.39-148.25h-35.24v-66.65h141.72v66.65h-35.52l-81.67,234.74v183.84h39.18v66.65h-156.01Z"/>
      <path d="M4785.92,1938.28v-66.65h40.65v-418.58h-40.65v-66.65h254.15v161.13h-66.65v-94.48h-68.85v167.36h56.03v66.65h-56.03v184.57h68.85v-102.91h66.65v169.56h-254.15Z"/>
      <path d="M5092.81,1938.28v-66.65h40.28v-418.58h-40.28v-66.65h99.61c63.47,0,109.37,22.58,137.7,67.75,28.32,45.17,42.48,115.24,42.48,210.21s-14.46,161.93-43.4,206.73c-28.93,44.8-73.79,67.2-134.58,67.2h-101.81Zm118.29-485.23v418.58c28.46-.49,48.27-15.25,59.43-44.31,11.16-29.05,16.74-80.32,16.74-153.81,0-57.37-2.33-101.81-6.99-133.3-4.66-31.49-12.39-53.89-23.19-67.2-10.79-13.3-26.13-19.96-45.99-19.96Z"/>
      <path d="M5410.68,1938.28v-66.65h42.11v-418.58h-42.11v-66.65h162.23v66.65h-42.11v418.58h42.11v66.65h-162.23Z"/>
      <path d="M5893.71,1386.4v201.78h-58.23v-143.55h-46.88v427h43.58v66.65h-165.16v-66.65h43.58v-427h-46.88v143.55h-58.23v-201.78h288.21Z"/>
      <path d="M5925.57,1938.28v-66.65h42.11v-418.58h-42.11v-66.65h162.23v66.65h-42.11v418.58h42.11v66.65h-162.23Z"/>
      <path d="M6388.1,1665.45c0,187.99-42.48,281.98-127.44,281.98-43.71,0-75.99-23.31-96.86-69.95-20.87-46.63-31.31-117.31-31.31-212.04,0-63.47,5-116.64,15.01-159.48,10.01-42.85,24.66-75.01,43.95-96.5,19.28-21.48,42.35-32.23,69.21-32.23,40.52,0,71.9,24.11,94.12,72.33,22.21,48.22,33.33,120.18,33.33,215.88Zm-170.29,2.93c0,79.83,2.99,134.16,8.97,162.96,5.98,28.81,17.27,43.21,33.88,43.21s27.16-14.4,33.14-43.21c5.98-28.8,8.97-82.88,8.97-162.23,0-86.67-2.81-144.84-8.42-174.5-5.62-29.66-16.85-44.5-33.69-44.5-17.82,0-29.42,16.3-34.79,48.89-5.37,32.59-8.06,89.05-8.06,169.37Z"/>
      <path d="M6436.07,1938.28v-66.65h37.72v-418.58h-37.72v-66.65h122.31l63.35,200.32,37.35,161.13h2.2l-8.42-166.63v-128.17h-37.35v-66.65h141.72v66.65h-37.72v485.23h-61.52l-67.75-211.67c-7.32-22.95-15.01-50.78-23.07-83.5l-30.4-124.15h-2.2l5.86,168.09v184.57h37.35v66.65h-141.72Z"/>
    </g>
    <polygon class="cls-4" points="7527.74 1256.79 7512.25 1274.96 7493.86 1260.45 7507.6 1234.21 7507.6 1234.21 7522.39 1231.95 7531.48 1239.05 7533.72 1251.17 7533.72 1251.17 7527.74 1256.79"/>
    <line class="cls-10" x1="7608.45" y1="1337.61" x2="7622.38" y2="1381.7"/>
    <line class="cls-10" x1="7543.46" y1="1343.38" x2="7545.09" y2="1389.59"/>
    <line class="cls-10" x1="7436.9" y1="1359.66" x2="7460.69" y2="1327.11"/>
    <line class="cls-10" x1="7351.9" y1="1195.18" x2="7397.54" y2="1202.61"/>
    <line class="cls-10" x1="7397.54" y1="1112.73" x2="7435.87" y2="1138.58"/>
    <line class="cls-10" x1="7415.56" y1="1259.22" x2="7374.72" y2="1280.89"/>
    <line class="cls-10" x1="7565.41" y1="1066.91" x2="7565.78" y2="1020.68"/>
    <line class="cls-10" x1="7481.17" y1="1084.81" x2="7466.38" y2="1041"/>
  </g>
</svg>